# xmcd CD database file
#
# Track frame offsets:
#	150
#	29480
#	61309
#	89632
#	137125
#	169224
#	185231
#	208265
#	219384
#	238385
#
# Disc length: 3380 seconds
#
# Revision: 0
# Processed by: cddbd v1.5.2PL0 Copyright (c) Steve Scherf et al.
# Submitted via: CDex 1.51
#
DISCID=a30d320a
DTITLE=Bobby Timmons - Six Classic Albums CD1
DYEAR=1957
DGENRE=Jazz
TTITLE0=Cliff's Edge
TTITLE1=Tenderly
TTITLE2=Princess
TTITLE3=Soft Talk
TTITLE4=Blue Jay
TTITLE5=This Here
TTITLE6=Moanin'
TTITLE7=Lush Life
TTITLE8=The Party Is Over
TTITLE9=Prelude To A Kiss
EXTD=YEAR: 1957
EXTT0=
EXTT1=
EXTT2=
EXTT3=
EXTT4=
EXTT5=
EXTT6=
EXTT7=
EXTT8=
EXTT9=
PLAYORDER=
